<mxfile host="app.diagrams.net" agent="Mozilla/5.0 (Windows NT 10.0; Win64; x64) AppleWebKit/537.36 (KHTML, like Gecko) Chrome/127.0.0.0 Safari/537.36" version="24.7.7">
  <diagram name="Page-1" id="rmqcg8gmH1Ts6C8ZiipM">
    <mxGraphModel dx="2173" dy="763" grid="1" gridSize="10" guides="1" tooltips="1" connect="1" arrows="1" fold="1" page="1" pageScale="1" pageWidth="850" pageHeight="1100" math="0" shadow="0">
      <root>
        <mxCell id="0" />
        <mxCell id="1" parent="0" />
        <mxCell id="ho2-ixvDxSLBhTGdopAw-1" value="&lt;div style=&quot;font-size: 13px;&quot;&gt;&lt;span style=&quot;background-color: initial; white-space: pre;&quot;&gt;&lt;b&gt;&lt;u&gt;Static Variables:&lt;/u&gt;&lt;/b&gt;&lt;/span&gt;&lt;/div&gt;&lt;div style=&quot;font-size: 13px;&quot;&gt;&lt;span style=&quot;background-color: initial; white-space: pre;&quot;&gt;itemCost;&lt;/span&gt;&lt;/div&gt;&lt;div style=&quot;font-size: 13px;&quot;&gt;&lt;span style=&quot;background-color: initial; white-space: pre;&quot;&gt;totalAmount;&lt;/span&gt;&lt;/div&gt;&lt;div style=&quot;font-size: 13px;&quot;&gt;&lt;span style=&quot;background-color: initial; white-space: pre;&quot;&gt;itemCount;&lt;/span&gt;&lt;/div&gt;&lt;div style=&quot;font-size: 13px;&quot;&gt;&lt;span style=&quot;background-color: initial; white-space: pre;&quot;&gt;&lt;b&gt;&lt;u&gt;&lt;br&gt;&lt;/u&gt;&lt;/b&gt;&lt;/span&gt;&lt;/div&gt;&lt;div style=&quot;font-size: 13px;&quot;&gt;&lt;span style=&quot;background-color: initial; white-space: pre;&quot;&gt;&lt;b&gt;&lt;u&gt;Abstract methods: &lt;/u&gt;&lt;/b&gt;&lt;/span&gt;&lt;br&gt;&lt;/div&gt;&lt;div style=&quot;font-size: 13px;&quot;&gt;&lt;span style=&quot;white-space: pre;&quot;&gt;&lt;font style=&quot;font-size: 13px;&quot;&gt;T-shirts()&lt;/font&gt;&lt;/span&gt;&lt;/div&gt;&lt;div style=&quot;font-size: 13px;&quot;&gt;&lt;span style=&quot;white-space: pre;&quot;&gt;&lt;font style=&quot;font-size: 13px;&quot;&gt; Dresses()&lt;/font&gt;&lt;/span&gt;&lt;/div&gt;&lt;div style=&quot;font-size: 13px;&quot;&gt;&lt;span style=&quot;white-space: pre; background-color: initial;&quot;&gt; Jeans() &lt;/span&gt;&lt;/div&gt;&lt;div style=&quot;font-size: 13px;&quot;&gt;&lt;br&gt;&lt;/div&gt;&lt;div style=&quot;font-size: 13px;&quot;&gt;&lt;span style=&quot;white-space: pre; background-color: initial;&quot;&gt;&lt;b&gt;&lt;u&gt;Concrete method:&lt;/u&gt;&lt;/b&gt;&lt;/span&gt;&lt;/div&gt;&lt;div style=&quot;font-size: 13px;&quot;&gt;&lt;span style=&quot;white-space: pre; background-color: initial;&quot;&gt; CalculateTotal (){&lt;/span&gt;&lt;br&gt;&lt;/div&gt;&lt;div style=&quot;font-size: 13px;&quot;&gt;&lt;span style=&quot;white-space: pre; background-color: initial;&quot;&gt;}&lt;/span&gt;&lt;/div&gt;&lt;div style=&quot;font-size: 13px;&quot;&gt;&lt;span style=&quot;white-space: pre; background-color: initial;&quot;&gt;&lt;br&gt;&lt;/span&gt;&lt;/div&gt;&lt;div style=&quot;font-size: 13px;&quot;&gt;&lt;span style=&quot;white-space: pre; background-color: initial;&quot;&gt;&lt;b&gt;&lt;u&gt;Constructor&lt;/u&gt;:&lt;/b&gt;&lt;/span&gt;&lt;/div&gt;&lt;div style=&quot;font-size: 13px;&quot;&gt;&lt;span style=&quot;white-space: pre; background-color: initial;&quot;&gt;OutputStatements&lt;/span&gt;&lt;/div&gt;&lt;div style=&quot;font-size: 13px;&quot;&gt;&lt;br&gt;&lt;/div&gt;&lt;div style=&quot;font-size: 13px;&quot;&gt;&lt;br&gt;&lt;/div&gt;" style="rounded=0;whiteSpace=wrap;html=1;direction=west;" parent="1" vertex="1">
          <mxGeometry x="10" y="450" width="260" height="310" as="geometry" />
        </mxCell>
        <mxCell id="ho2-ixvDxSLBhTGdopAw-2" value="&lt;div style=&quot;font-size: 14px;&quot;&gt;&lt;br&gt;&lt;/div&gt;&lt;div style=&quot;font-size: 14px;&quot;&gt;&lt;font face=&quot;KhpfukY6YOiDOe7wu015&quot;&gt;Abstract Methods:&lt;/font&gt;&lt;/div&gt;&lt;div style=&quot;font-size: 14px;&quot;&gt;&lt;font face=&quot;KhpfukY6YOiDOe7wu015&quot;&gt;&lt;br&gt;&lt;/font&gt;&lt;/div&gt;&lt;div style=&quot;font-size: 14px;&quot;&gt;&lt;font style=&quot;font-size: 14px;&quot; face=&quot;KhpfukY6YOiDOe7wu015&quot;&gt;void Earrings();&amp;nbsp;&lt;/font&gt;&lt;/div&gt;&lt;div style=&quot;font-size: 14px;&quot;&gt;&lt;font style=&quot;font-size: 14px;&quot; face=&quot;KhpfukY6YOiDOe7wu015&quot;&gt;void Shoe();&amp;nbsp;&lt;/font&gt;&lt;/div&gt;&lt;div style=&quot;font-size: 14px;&quot;&gt;&lt;font style=&quot;font-size: 14px;&quot; face=&quot;KhpfukY6YOiDOe7wu015&quot;&gt;void Bags();&amp;nbsp;&lt;/font&gt;&lt;/div&gt;&lt;div style=&quot;font-size: 14px;&quot;&gt;&lt;font style=&quot;font-size: 14px;&quot; face=&quot;KhpfukY6YOiDOe7wu015&quot;&gt;void Handbags();&lt;/font&gt;&lt;br&gt;&lt;/div&gt;" style="rounded=0;whiteSpace=wrap;html=1;" parent="1" vertex="1">
          <mxGeometry x="810" y="380" width="270" height="160" as="geometry" />
        </mxCell>
        <mxCell id="ho2-ixvDxSLBhTGdopAw-3" value="&lt;div&gt;&lt;span style=&quot;background-color: initial;&quot;&gt;&lt;br&gt;&lt;/span&gt;&lt;/div&gt;&lt;div&gt;&lt;span style=&quot;background-color: initial;&quot;&gt;&lt;br&gt;&lt;/span&gt;&lt;/div&gt;&lt;div&gt;&lt;span style=&quot;background-color: initial;&quot;&gt;&lt;br&gt;&lt;/span&gt;&lt;/div&gt;&lt;div&gt;&lt;span style=&quot;background-color: initial;&quot;&gt;&lt;br&gt;&lt;/span&gt;&lt;/div&gt;&lt;div&gt;&lt;span style=&quot;background-color: initial;&quot;&gt;-&amp;gt;overriding methods&lt;/span&gt;&lt;/div&gt;&lt;div&gt;&lt;span style=&quot;background-color: initial;&quot;&gt;&amp;nbsp;T-shirts(), Dresses(), Jeans()&lt;/span&gt;&lt;/div&gt;&lt;div&gt;&lt;span style=&quot;background-color: initial;&quot;&gt;&amp;nbsp;Earrings(), Shoe(), Bags(), and handbags().&lt;/span&gt;&lt;/div&gt;&lt;div&gt;&lt;span style=&quot;background-color: initial;&quot;&gt;processPayment().&lt;/span&gt;&lt;/div&gt;&lt;div&gt;&lt;span style=&quot;background-color: initial;&quot;&gt;&lt;br&gt;&lt;/span&gt;&lt;/div&gt;&lt;div&gt;&lt;span style=&quot;background-color: initial;&quot;&gt;calling CalculateTotal Method to execute calculation&lt;/span&gt;&lt;/div&gt;&lt;div&gt;&lt;br&gt;&lt;/div&gt;&lt;div&gt;-&amp;gt;Main method&lt;/div&gt;&lt;div&gt;opening statements&amp;nbsp;&lt;/div&gt;&lt;div&gt;choosing the category to shop.&amp;nbsp;&lt;/div&gt;&lt;div&gt;Women or girl or men or boy or kids&lt;/div&gt;&lt;div&gt;(W,G,M,B,K)&lt;/div&gt;&lt;div&gt;&lt;br&gt;&lt;/div&gt;&lt;div&gt;Subcategory:&lt;/div&gt;&lt;div&gt;clothing(C),Accessories(A),Exit(E)&lt;/div&gt;&lt;div&gt;&lt;br&gt;&lt;/div&gt;&lt;div&gt;Clothing(C):&lt;/div&gt;&lt;div&gt;t-shirts(T),dresses(D),jeans(J)&lt;/div&gt;&lt;div&gt;T,D: Small(S),Medium(M),Large(L)&lt;/div&gt;&lt;div&gt;&lt;br&gt;&lt;/div&gt;&lt;div&gt;Accessories(A):&lt;/div&gt;&lt;div&gt;Earrings(H),Shoes(S),Bags(B),HandBags(O)&lt;/div&gt;&lt;div&gt;Sizes of shoe and some brands in bags and handbags&lt;/div&gt;&lt;div&gt;&lt;br&gt;&lt;/div&gt;&lt;div&gt;Object Creation:&lt;/div&gt;&lt;div&gt;AccessoryReview, ClothingReview&lt;/div&gt;&lt;div&gt;Method:handleAccessoryReview&lt;/div&gt;&lt;div&gt;&lt;br&gt;&lt;/div&gt;&lt;div&gt;&lt;br&gt;&lt;/div&gt;&lt;div&gt;&lt;br&gt;&lt;/div&gt;&lt;div&gt;&lt;br&gt;&lt;/div&gt;&lt;div&gt;&lt;br&gt;&lt;/div&gt;&lt;div&gt;&lt;br&gt;&lt;/div&gt;" style="rounded=0;whiteSpace=wrap;html=1;direction=south;" parent="1" vertex="1">
          <mxGeometry x="320" y="370" width="320" height="440" as="geometry" />
        </mxCell>
        <mxCell id="ho2-ixvDxSLBhTGdopAw-4" value="ABSTRACT CLASS(abstract class Clothing)" style="text;html=1;align=center;verticalAlign=middle;resizable=0;points=[];autosize=1;strokeColor=none;fillColor=none;" parent="1" vertex="1">
          <mxGeometry x="20" y="420" width="260" height="30" as="geometry" />
        </mxCell>
        <mxCell id="ho2-ixvDxSLBhTGdopAw-5" value="INTERFACE (Interface Accessories)" style="text;html=1;align=center;verticalAlign=middle;resizable=0;points=[];autosize=1;strokeColor=none;fillColor=none;" parent="1" vertex="1">
          <mxGeometry x="780" y="350" width="220" height="30" as="geometry" />
        </mxCell>
        <mxCell id="ho2-ixvDxSLBhTGdopAw-6" value="Main Class(Class ClothingShoppingMain)" style="text;html=1;align=center;verticalAlign=middle;resizable=0;points=[];autosize=1;strokeColor=none;fillColor=none;" parent="1" vertex="1">
          <mxGeometry x="350" y="330" width="240" height="30" as="geometry" />
        </mxCell>
        <mxCell id="ho2-ixvDxSLBhTGdopAw-7" value="" style="endArrow=classic;html=1;rounded=0;" parent="1" edge="1">
          <mxGeometry width="50" height="50" relative="1" as="geometry">
            <mxPoint x="1010" y="380" as="sourcePoint" />
            <mxPoint x="600" y="368" as="targetPoint" />
            <Array as="points">
              <mxPoint x="1010" y="320" />
              <mxPoint x="600" y="320" />
            </Array>
          </mxGeometry>
        </mxCell>
        <mxCell id="ho2-ixvDxSLBhTGdopAw-8" value="Implements" style="text;html=1;align=center;verticalAlign=middle;resizable=0;points=[];autosize=1;strokeColor=none;fillColor=none;" parent="1" vertex="1">
          <mxGeometry x="680" y="290" width="90" height="30" as="geometry" />
        </mxCell>
        <mxCell id="ho2-ixvDxSLBhTGdopAw-9" value="" style="endArrow=classic;html=1;rounded=0;exitX=0.923;exitY=0.994;exitDx=0;exitDy=0;exitPerimeter=0;entryX=0.005;entryY=0.909;entryDx=0;entryDy=0;entryPerimeter=0;" parent="1" source="ho2-ixvDxSLBhTGdopAw-1" target="ho2-ixvDxSLBhTGdopAw-3" edge="1">
          <mxGeometry width="50" height="50" relative="1" as="geometry">
            <mxPoint x="30" y="380" as="sourcePoint" />
            <mxPoint x="340" y="250" as="targetPoint" />
            <Array as="points">
              <mxPoint x="30" y="320" />
              <mxPoint x="349" y="320" />
            </Array>
          </mxGeometry>
        </mxCell>
        <mxCell id="ho2-ixvDxSLBhTGdopAw-10" value="extends" style="text;html=1;align=center;verticalAlign=middle;resizable=0;points=[];autosize=1;strokeColor=none;fillColor=none;" parent="1" vertex="1">
          <mxGeometry x="165" y="288" width="70" height="30" as="geometry" />
        </mxCell>
        <mxCell id="9e_iRUMu1m-Bx5r-5izd-1" value="&lt;b&gt;&lt;u&gt;Static Variables:&lt;/u&gt;&lt;/b&gt;&lt;div&gt;amount&lt;/div&gt;&lt;div&gt;paymentMethod&lt;/div&gt;&lt;div&gt;&lt;br&gt;&lt;/div&gt;&lt;div&gt;&lt;b&gt;&lt;u&gt;Constructor:&lt;/u&gt;&lt;/b&gt;&lt;/div&gt;&lt;div&gt;PaymentModule&lt;/div&gt;&lt;div&gt;&lt;br&gt;&lt;/div&gt;&lt;div&gt;&lt;b&gt;&lt;u&gt;Method:&lt;/u&gt;&lt;/b&gt;&lt;/div&gt;&lt;div&gt;processPayment()&lt;/div&gt;&lt;div&gt;&lt;br&gt;&lt;/div&gt;" style="rounded=0;whiteSpace=wrap;html=1;" parent="1" vertex="1">
          <mxGeometry x="810" y="600" width="270" height="190" as="geometry" />
        </mxCell>
        <mxCell id="9e_iRUMu1m-Bx5r-5izd-2" value="" style="endArrow=classic;html=1;rounded=0;exitX=0;exitY=0.421;exitDx=0;exitDy=0;exitPerimeter=0;" parent="1" source="9e_iRUMu1m-Bx5r-5izd-1" edge="1">
          <mxGeometry width="50" height="50" relative="1" as="geometry">
            <mxPoint x="590" y="520" as="sourcePoint" />
            <mxPoint x="642" y="400" as="targetPoint" />
            <Array as="points">
              <mxPoint x="700" y="680" />
              <mxPoint x="700" y="400" />
            </Array>
          </mxGeometry>
        </mxCell>
        <mxCell id="9e_iRUMu1m-Bx5r-5izd-3" value="CLASS(PaymentModule)" style="text;html=1;align=center;verticalAlign=middle;resizable=0;points=[];autosize=1;strokeColor=none;fillColor=none;" parent="1" vertex="1">
          <mxGeometry x="865" y="560" width="160" height="30" as="geometry" />
        </mxCell>
        <mxCell id="9e_iRUMu1m-Bx5r-5izd-4" value="IS-A&amp;nbsp;" style="text;html=1;align=center;verticalAlign=middle;resizable=0;points=[];autosize=1;strokeColor=none;fillColor=none;fontSize=14;" parent="1" vertex="1">
          <mxGeometry x="830" y="288" width="50" height="30" as="geometry" />
        </mxCell>
        <mxCell id="9e_iRUMu1m-Bx5r-5izd-7" value="HAS-A" style="text;html=1;align=center;verticalAlign=middle;resizable=0;points=[];autosize=1;strokeColor=none;fillColor=none;" parent="1" vertex="1">
          <mxGeometry x="720" y="630" width="60" height="30" as="geometry" />
        </mxCell>
        <mxCell id="J1QmrXAfAcnhnZEp0yj4-1" value="&lt;b&gt;&lt;u&gt;Abstract Methods:&amp;nbsp;&lt;/u&gt;&lt;/b&gt;&lt;div&gt;DisplayReview&lt;/div&gt;&lt;div&gt;&lt;br&gt;&lt;/div&gt;&lt;div&gt;&lt;b&gt;&lt;u&gt;Concrete Methods:&lt;/u&gt;&lt;/b&gt;&lt;/div&gt;&lt;div&gt;ItemReview&lt;/div&gt;" style="rounded=0;whiteSpace=wrap;html=1;" vertex="1" parent="1">
          <mxGeometry x="335" y="900" width="290" height="170" as="geometry" />
        </mxCell>
        <mxCell id="J1QmrXAfAcnhnZEp0yj4-2" value="ClothingReview Extends ItemReview&lt;div&gt;&lt;br&gt;&lt;/div&gt;&lt;div&gt;&lt;u&gt;&lt;b&gt;OverRideMethods&lt;/b&gt;(&lt;b&gt;ItemReview&lt;/b&gt;):&lt;/u&gt;&lt;/div&gt;&lt;div&gt;DisplayReview&lt;/div&gt;&lt;div&gt;&lt;br&gt;&lt;/div&gt;&lt;div&gt;&lt;b&gt;Local&lt;/b&gt; &lt;b&gt;Method&lt;/b&gt;:&lt;/div&gt;&lt;div&gt;ClothingReview&lt;/div&gt;" style="rounded=0;whiteSpace=wrap;html=1;fontStyle=0" vertex="1" parent="1">
          <mxGeometry x="-20" y="900" width="290" height="170" as="geometry" />
        </mxCell>
        <mxCell id="J1QmrXAfAcnhnZEp0yj4-3" value="&lt;div&gt;AccessoryReview Extends ItemReview&lt;b&gt;&lt;u&gt;&lt;br&gt;&lt;/u&gt;&lt;/b&gt;&lt;/div&gt;&lt;div&gt;&lt;br&gt;&lt;/div&gt;&lt;b&gt;&lt;u&gt;OverRide methods(ItemReview):&lt;/u&gt;&lt;/b&gt;&lt;div&gt;DisplayReview&lt;/div&gt;&lt;div&gt;&lt;br&gt;&lt;/div&gt;&lt;div&gt;&lt;b&gt;&lt;u&gt;Local Method:&lt;/u&gt;&lt;/b&gt;&lt;/div&gt;&lt;div&gt;AccessoryReview&lt;/div&gt;" style="rounded=0;whiteSpace=wrap;html=1;" vertex="1" parent="1">
          <mxGeometry x="700" y="900" width="290" height="170" as="geometry" />
        </mxCell>
        <mxCell id="J1QmrXAfAcnhnZEp0yj4-4" value="AbstractClass(ItemReview)" style="text;html=1;align=center;verticalAlign=middle;resizable=0;points=[];autosize=1;strokeColor=none;fillColor=none;" vertex="1" parent="1">
          <mxGeometry x="385" y="870" width="170" height="30" as="geometry" />
        </mxCell>
        <mxCell id="J1QmrXAfAcnhnZEp0yj4-5" value="Class(ClothingReview)" style="text;html=1;align=center;verticalAlign=middle;resizable=0;points=[];autosize=1;strokeColor=none;fillColor=none;" vertex="1" parent="1">
          <mxGeometry x="30" y="868" width="140" height="30" as="geometry" />
        </mxCell>
        <mxCell id="J1QmrXAfAcnhnZEp0yj4-6" value="Class(AccessoryReview)" style="text;html=1;align=center;verticalAlign=middle;resizable=0;points=[];autosize=1;strokeColor=none;fillColor=none;" vertex="1" parent="1">
          <mxGeometry x="770" y="868" width="160" height="30" as="geometry" />
        </mxCell>
        <mxCell id="J1QmrXAfAcnhnZEp0yj4-7" value="" style="endArrow=classic;html=1;rounded=0;entryX=0.005;entryY=0.459;entryDx=0;entryDy=0;entryPerimeter=0;exitX=0.999;exitY=0.455;exitDx=0;exitDy=0;exitPerimeter=0;" edge="1" parent="1" source="J1QmrXAfAcnhnZEp0yj4-1" target="J1QmrXAfAcnhnZEp0yj4-3">
          <mxGeometry width="50" height="50" relative="1" as="geometry">
            <mxPoint x="470" y="940" as="sourcePoint" />
            <mxPoint x="520" y="890" as="targetPoint" />
          </mxGeometry>
        </mxCell>
        <mxCell id="J1QmrXAfAcnhnZEp0yj4-8" value="" style="endArrow=classic;html=1;rounded=0;entryX=1;entryY=0.5;entryDx=0;entryDy=0;exitX=0;exitY=0.5;exitDx=0;exitDy=0;" edge="1" parent="1" source="J1QmrXAfAcnhnZEp0yj4-1" target="J1QmrXAfAcnhnZEp0yj4-2">
          <mxGeometry width="50" height="50" relative="1" as="geometry">
            <mxPoint x="470" y="940" as="sourcePoint" />
            <mxPoint x="520" y="890" as="targetPoint" />
          </mxGeometry>
        </mxCell>
        <mxCell id="J1QmrXAfAcnhnZEp0yj4-9" value="" style="endArrow=classic;html=1;rounded=0;" edge="1" parent="1">
          <mxGeometry width="50" height="50" relative="1" as="geometry">
            <mxPoint x="240" y="900" as="sourcePoint" />
            <mxPoint x="410" y="810" as="targetPoint" />
            <Array as="points">
              <mxPoint x="240" y="850" />
              <mxPoint x="410" y="850" />
            </Array>
          </mxGeometry>
        </mxCell>
        <mxCell id="J1QmrXAfAcnhnZEp0yj4-10" value="" style="endArrow=classic;html=1;rounded=0;exitX=0.207;exitY=0;exitDx=0;exitDy=0;exitPerimeter=0;entryX=1;entryY=0.285;entryDx=0;entryDy=0;entryPerimeter=0;" edge="1" parent="1" source="J1QmrXAfAcnhnZEp0yj4-3" target="ho2-ixvDxSLBhTGdopAw-3">
          <mxGeometry width="50" height="50" relative="1" as="geometry">
            <mxPoint x="470" y="940" as="sourcePoint" />
            <mxPoint x="520" y="890" as="targetPoint" />
            <Array as="points">
              <mxPoint x="760" y="850" />
              <mxPoint x="550" y="850" />
            </Array>
          </mxGeometry>
        </mxCell>
        <mxCell id="J1QmrXAfAcnhnZEp0yj4-11" value="HAS-A" style="text;html=1;align=center;verticalAlign=middle;resizable=0;points=[];autosize=1;strokeColor=none;fillColor=none;" vertex="1" parent="1">
          <mxGeometry x="570" y="818" width="60" height="30" as="geometry" />
        </mxCell>
        <mxCell id="J1QmrXAfAcnhnZEp0yj4-12" value="HAS-A" style="text;html=1;align=center;verticalAlign=middle;resizable=0;points=[];autosize=1;strokeColor=none;fillColor=none;" vertex="1" parent="1">
          <mxGeometry x="335" y="818" width="60" height="30" as="geometry" />
        </mxCell>
        <mxCell id="J1QmrXAfAcnhnZEp0yj4-13" value="Extends" style="text;html=1;align=center;verticalAlign=middle;resizable=0;points=[];autosize=1;strokeColor=none;fillColor=none;" vertex="1" parent="1">
          <mxGeometry x="625" y="938" width="70" height="30" as="geometry" />
        </mxCell>
        <mxCell id="J1QmrXAfAcnhnZEp0yj4-14" value="Extends" style="text;html=1;align=center;verticalAlign=middle;resizable=0;points=[];autosize=1;strokeColor=none;fillColor=none;" vertex="1" parent="1">
          <mxGeometry x="270" y="948" width="70" height="30" as="geometry" />
        </mxCell>
        <mxCell id="J1QmrXAfAcnhnZEp0yj4-15" value="ClothingShoppingMain" style="text;html=1;align=center;verticalAlign=middle;resizable=0;points=[];autosize=1;strokeColor=none;fillColor=none;fontSize=27;" vertex="1" parent="1">
          <mxGeometry x="325" y="170" width="300" height="50" as="geometry" />
        </mxCell>
      </root>
    </mxGraphModel>
  </diagram>
</mxfile>
